HIERARCHY
ROOT Hips
{
  OFFSET 30.8253 102.999 -30.9753
  CHANNELS 6 Xposition Yposition Zposition Zrotation Xrotation Yrotation
  JOINT Spine
  {
    OFFSET -0.000355721 21.3001 -0.016921
    CHANNELS 3 Zrotation Xrotation Yrotation
    JOINT LeftArm
    {
      OFFSET 13.5181 21.3012 0
      CHANNELS 3 Zrotation Xrotation Yrotation
      JOINT LeftForeArm
      {
        OFFSET 24.5783 0 0
        CHANNELS 3 Zrotation Xrotation Yrotation
        JOINT LeftHand
        {
          OFFSET 24.5783 0 0
          CHANNELS 3 Zrotation Xrotation Yrotation
          End Site
          {
            OFFSET 7.32568 1.52588e-05 0.0169305
          }
        }
      }
    }
    JOINT Head
    {
      OFFSET 0 27.4458 -0.00489235
      CHANNELS 3 Zrotation Xrotation Yrotation
      End Site
      {
        OFFSET 0 0 0
      }
    }
    JOINT RightArm
    {
      OFFSET -13.5174 21.3012 0
      CHANNELS 3 Zrotation Xrotation Yrotation
      JOINT RightForeArm
      {
        OFFSET -24.5783 0 0
        CHANNELS 3 Zrotation Xrotation Yrotation
        JOINT RightHand
        {
          OFFSET -24.5783 0 0
          CHANNELS 3 Zrotation Xrotation Yrotation
          End Site
          {
            OFFSET -7.32568 1.52588e-05 0.0169305
          }
        }
      }
    }
  }
  JOINT RightUpLeg
  {
    OFFSET -8.44614 -9.41038 0.835684
    CHANNELS 3 Zrotation Xrotation Yrotation
    JOINT RightLeg
    {
      OFFSET 0 -40.9639 0
      CHANNELS 3 Zrotation Xrotation Yrotation
      JOINT RightFoot
      {
        OFFSET 0 -40.9639 0
        CHANNELS 3 Zrotation Xrotation Yrotation
        End Site
        {
          OFFSET 0.50614 -9.67405 14.6709
        }
      }
    }
  }
  JOINT LeftUpLeg
  {
    OFFSET 8.44614 -9.41038 0.835684
    CHANNELS 3 Zrotation Xrotation Yrotation
    JOINT LeftLeg
    {
      OFFSET 0 -40.9639 0
      CHANNELS 3 Zrotation Xrotation Yrotation
      JOINT LeftFoot
      {
        OFFSET 0 -40.9639 0
        CHANNELS 3 Zrotation Xrotation Yrotation
        End Site
        {
          OFFSET -0.50614 -9.67405 14.6709
        }
      }
    }
  }
}
MOTION
Frames:	18
Frame Time:	0.0333333
36.0716 95.7937 1.39453 10.4377 -11.0641 -139.254 -9.34665 -0.576695 6.25755 63.2314 -43.8883 -0.553361 0.0234998 -0.000269675 -4.75614 -5.64363 11.8831 4.95094 43.9164 -65.0301 37.475 16.2164 -22.7037 -0.159181 2.66076e-05 -0.000110376 0.709047 -32.7662 20.1168 -7.96835 -26.4835 -17.2411 -41.3246 -4.75203e-05 28.335 -0.234969 43.0903 -11.5294 -8.01514 3.18346 -42.4037 19.0489 0.00102564 49.5862 0.337613 20.6878 -17.721 45.7261 
36.7519 96.114 0.268392 12.2738 -8.49873 -127.531 -9.70212 -0.273229 6.43865 63.182 -45.5419 0.25211 0.0239453 -0.000269347 -5.5302 -5.25808 13.0285 4.93914 45.2362 -65.5327 38.2173 16.2497 -21.9459 -1.26793 2.56258e-05 -0.000110384 0.19941 -33.7808 20.3902 -7.26116 -24.5224 -11.0231 -50.1214 2.71627e-05 28.7982 -0.208057 42.9916 -13.32 -8.5272 4.34814 -41.7608 19.8052 0.000365184 48.5323 0.358448 22.1596 -16.0678 50.0047 
36.531 96.5253 -0.515565 12.5334 -6.43451 -116.029 -10.1354 -0.220231 6.54194 61.285 -45.0445 -1.0516 0.0243856 -0.000269388 -5.43892 -5.57248 12.0636 4.60479 43.5349 -64.9583 37.1729 15.8589 -23.7947 -3.21103 2.57319e-05 -0.000110383 0.254508 -32.6254 21.481 -7.40516 -23.814 -6.71988 -53.3857 1.66804e-05 31.3842 -0.115113 40.4198 -15.7289 -14.2447 5.90603 -39.3819 26.9001 -0.000251239 47.2398 0.337445 22.4924 -16.4443 52.7082 
35.6042 97.2085 -0.864441 13.3806 -4.20269 -103.35 -10.3528 -1.16372 5.8955 59.117 -45.8008 -3.5827 0.024814 -0.000269209 -5.82548 -5.38264 12.0775 4.55164 40.1052 -64.3609 33.8359 15.7453 -22.5355 -6.14761 2.61138e-05 -0.000110381 0.452738 -33.3567 21.6881 -7.29925 -22.6682 -6.18433 -47.7333 -4.59745e-05 36.159 -0.0101312 33.902 -16.6622 -25.7966 6.65175 -37.0438 34.9237 0.000601775 44.7502 0.278145 22.8884 -13.046 53.8082 
34.0792 97.6435 -0.228514 13.3977 -2.86861 -89.324 -10.0247 -1.86762 4.78653 55.116 -45.7074 -7.05314 0.0252314 -0.000268945 -6.35288 -5.14212 12.5389 4.14003 33.3612 -63.8805 28.72 14.2222 -20.5074 -10.19 2.55484e-05 -0.000110384 0.159227 -33.3567 22.8108 -6.76252 -24.3161 -7.79526 -40.3797 8.39446e-06 43.971 -0.100084 29.5212 -5.84687 -39.3233 3.64262 -33.5282 37.0196 -0.00302735 42.6447 0.165337 15.11 -17.8553 41.4883 
32.8658 97.1632 0.581633 13.7259 -2.55998 -74.4646 -9.01691 -2.04715 3.95625 49.8855 -46.9841 -9.86274 0.0256359 -0.000268389 -7.34042 -4.46181 13.1474 4.61939 24.1893 -64.6667 22.5234 10.5401 -21.9872 -15.7722 2.60355e-05 -0.000110382 0.412073 -31.6489 22.7242 -7.43147 -27.1109 -11.7364 -32.8931 1.74669e-05 51.1078 -0.3561 27.2071 18.9265 -42.4098 -0.668708 -32.601 36.4719 -0.0302256 43.1196 0.141218 10.3931 -18.9789 32.3277 
32.2545 97.1804 1.0624 14.7615 -1.07809 -61.5528 -7.28602 -2.207 4.11914 45.6802 -48.0493 -10.5976 0.0260304 -0.000267923 -8.07549 -4.01003 13.1509 4.32149 15.8887 -65.4683 18.3971 7.42068 -23.127 -19.8234 2.55023e-05 -0.000110384 0.135315 -30.6843 23.3273 -7.93021 -26.9357 -18.6635 -24.4591 1.35366e-05 59.6039 -0.179861 24.8551 10.4673 -33.3394 -4.25487 -32.4096 40.7517 -0.00193834 41.954 0.0992768 10.1905 -17.6873 32.1782 
31.9663 97.3198 1.34644 15.0422 1.16229 -50.9336 -7.30322 -1.90162 4.1239 45.2163 -47.2033 -9.09289 0.0264165 -0.000267912 -8.0925 -4.87252 13.8925 5.00344 14.4302 -64.8671 19.088 8.49949 -22.665 -20.7774 2.6656e-05 -0.000110375 0.734173 -30.2959 22.8461 -7.86394 -24.7601 -25.662 -15.4562 3.831e-05 62.0016 -0.0119959 18.2535 -1.29419 -36.8506 -9.76434 -30.2965 42.5638 0.000275712 35.2836 0.105404 14.7685 -16.8784 36.5053 
31.6002 97.3983 1.26259 14.6834 4.8592 -41.1883 -8.57608 -1.96467 3.79777 48.0923 -46.1739 -6.61828 0.026793 -0.000268263 -7.5465 -5.60856 14.2341 5.09511 18.9825 -64.7 22.6501 11.7357 -23.8654 -19.9944 2.62572e-05 -0.00011038 0.527178 -30.4522 23.3024 -7.69047 -22.2511 -30.743 -5.58327 4.03653e-05 59.938 0.0899386 18.007 -21.286 -35.9886 -14.3595 -29.1304 32.7665 6.16143e-05 29.6904 0.0685644 18.924 -16.3575 37.8842 
31.305 97.334 0.583351 13.7933 8.80234 -29.3606 -8.50366 -2.01147 3.33432 47.5409 -47.7095 -6.25507 0.0271557 -0.000268448 -7.24111 -5.13347 13.3029 4.21273 17.5583 -65.8412 21.8811 12.6733 -25.7347 -21.4921 2.59146e-05 -0.000110382 0.34931 -29.5799 23.7358 -7.66 -23.0011 -33.4915 2.50581 -5.07047e-06 52.2726 0.111695 22.9738 -29.4997 -26.0641 -17.3471 -31.4069 18.0904 -7.42159e-06 31.5671 0.0922955 17.2243 -15.339 38.2079 
30.712 97.3844 -0.137799 10.9256 12.9571 -16.1497 -7.92292 -2.01989 2.93588 46.9322 -48.6396 -7.18561 0.0275078 -0.000268925 -6.39 -5.44789 13.095 3.96391 15.1943 -67.6438 19.2978 13.4875 -27.1512 -23.5308 2.52415e-05 -0.000110384 -3.56258e-05 -27.6765 23.5585 -8.39498 -24.5913 -33.6547 10.0457 -3.23087e-06 39.433 0.0659688 27.6601 -28.3362 -20.0883 -18.1136 -32.6809 10.2865 8.67429e-06 33.28 0.11914 16.501 -16.3207 33.5043 
29.7962 97.2834 -0.579566 7.37069 16.138 -4.48185 -8.04627 -2.08299 3.1287 48.098 -49.7151 -6.2 0.0278438 -0.000269115 -6.0197 -5.73774 13.3216 4.68641 16.0452 -68.9303 20.0681 14.3339 -28.4311 -24.0479 2.52415e-05 -0.000110384 -6.89286e-05 -27.8809 23.0824 -8.65066 -27.9879 -31.1121 17.2658 -6.66563e-06 23.2438 -0.212344 37.4162 -23.9252 -14.2012 -17.5947 -34.3016 5.52023 -6.54626e-06 35.3007 0.156599 13.8887 -18.0978 28.689 
28.6632 97.2978 -0.687313 3.74942 17.1436 7.51071 -8.5242 -1.9865 3.09652 48.7733 -49.1855 -5.80328 0.0281652 -0.000269244 -5.753 -5.7508 13.4666 4.05524 16.8302 -68.8246 21.2523 14.8263 -27.5514 -23.768 2.56271e-05 -0.000110384 0.200103 -27.9295 22.5309 -7.34968 -30.8033 -25.3287 17.9345 4.85067e-06 7.89292 -0.710383 40.635 -12.8969 -11.9566 -16.6692 -34.1838 3.2796 1.37138e-05 36.8442 0.134775 10.0498 -20.3625 23.5379 
27.4971 97.1347 -0.319916 -0.0694216 16.6583 20.7448 -8.88192 -1.89033 2.88417 48.7981 -48.5319 -6.82389 0.0284715 -0.000269332 -5.56389 -5.38192 13.1373 4.11241 17.0601 -67.8507 20.9985 14.3671 -26.99 -24.0976 2.52416e-05 -0.000110384 -4.88982e-06 -27.0892 22.7086 -8.66012 -30.2451 -20.2554 12.9431 2.31091e-06 7.32711 -0.566301 44.1684 -10.838 -11.1044 -15.2133 -33.8768 3.805 1.65845e-05 39.748 0.147554 9.81146 -22.3536 27.857 
26.5532 96.8726 -0.0328642 -4.47874 15.5757 33.2363 -8.74339 -1.7682 3.16545 50.1389 -49.509 -6.06337 0.0287594 -0.000269099 -6.0513 -5.22717 13.9235 4.38675 18.7654 -67.6586 22.0531 13.5249 -27.0962 -23.9677 2.62564e-05 -0.00011038 0.526758 -27.4936 22.58 -8.76399 -28.1901 -14.976 3.50998 -1.84257e-05 8.1165 -0.92454 45.2433 -13.0484 -9.9974 -12.4449 -34.6783 10.128 -3.31666e-06 41.5242 0.233214 15.9462 -22.074 39.9553 
26.1443 96.8257 -0.111851 -9.26681 13.5096 43.9839 -9.198 -2.025 3.64757 54.1467 -48.2648 -3.2197 0.0290349 -0.000269202 -5.8401 -5.50717 13.9377 4.48539 23.4599 -67.6273 25.3546 14.7435 -26.744 -22.0045 2.74932e-05 -0.000110361 1.16879 -28.404 23.0749 -7.87236 -25.0969 -13.1788 -8.25221 3.74164e-06 11.5651 -0.802812 44.3603 -12.0249 -8.02165 -7.18047 -35.5588 22.4976 0.000313558 42.1177 0.256403 17.6411 -22.4673 45.8223 
26.4473 96.6682 -0.341681 -11.1381 11.0494 55.0159 -9.73867 -2.33414 3.87148 54.3468 -46.7034 -3.56827 0.029297 -0.000269556 -5.05089 -6.41119 12.9218 4.40611 25.3426 -66.1368 26.4842 14.0187 -25.2528 -20.7131 2.75476e-05 -0.00011036 1.19702 -29.2517 23.0295 -7.73408 -24.029 -8.76802 -16.641 6.92739e-06 13.9644 -0.773337 44.7588 -13.3017 -8.65799 -4.90794 -34.1363 32.1818 0.000344504 42.8126 0.185274 12.7628 -24.5136 40.1277 
27.0988 96.6714 -1.0554 -12.0939 8.99474 67.395 -9.69003 -2.2086 3.80453 52.1064 -47.7004 -5.11693 0.0295361 -0.000269326 -5.57559 -6.32319 13.3455 4.43641 23.4984 -65.4394 24.6802 11.3412 -25.3376 -21.3748 2.80367e-05 -0.000110349 1.45097 -29.0672 23.3211 -7.64655 -24.515 -7.95672 -20.2426 1.48037e-05 23.7191 -0.448511 43.2412 -16.1943 -13.4222 -6.34488 -32.8048 34.4417 -0.000398445 43.0487 0.137242 11.0198 -22.4682 34.8738 
